<svg width="100" height="100" viewBox="0 0 100 100" fill="none" xmlns="http://www.w3.org/2000/svg">
<rect width="100" height="100" fill="white"/>
<path d="M19.2645 80.3225C10.8452 71.9031 10.8452 58.2128 19.2645 49.7935L44.0693 24.9887C45.1187 23.9392 46.836 23.9392 47.8854 24.9887C48.9348 26.0381 48.9348 27.7554 47.8854 28.8048L23.0806 53.6096C16.7602 59.9301 16.7602 70.1859 23.0806 76.5063C29.4011 82.8268 39.6569 82.8268 45.9774 76.5063L79.3684 43.1153C84.1147 38.369 84.0909 30.6652 79.3684 25.9427C74.6221 21.1964 66.9422 21.1964 62.1959 25.9427L34.529 53.6096C31.3807 56.7579 31.3807 61.9097 34.529 65.058C37.6773 68.2063 42.8291 68.2063 45.9774 65.058L65.058 45.9774C66.1074 44.9279 67.8247 44.9279 68.8741 45.9774C69.9235 47.0268 69.9235 48.744 68.8741 49.7935L49.7935 68.8741C44.5225 74.1451 35.9839 74.1451 30.7129 68.8741C25.4418 63.6031 25.4418 55.0645 30.7129 49.7935L58.3798 22.1266C65.2249 15.2814 76.3394 15.2814 83.1846 22.1266C90.0297 28.9718 90.0297 40.0862 83.1846 46.9314L49.7935 80.3225C41.3742 88.7418 27.6838 88.7418 19.2645 80.3225Z" fill="black"/>
</svg>
